<?xml version="1.0" encoding="UTF-8"?>
<svg xmlns="http://www.w3.org/2000/svg" xmlns:xlink="http://www.w3.org/1999/xlink" width="25px" height="20px" viewBox="0 0 25 20" version="1.1">
<g id="surface1">
<path style=" stroke:none;fill-rule:nonzero;fill:rgb(70.196078%,70.196078%,70.196078%);fill-opacity:1;" d="M 12.40625 0 L 3.046875 6.945312 L 3.046875 12.714844 L 12.40625 19.660156 C 12.386719 4.839844 12.40625 12.113281 12.40625 0 Z M 12.40625 0 "/>
<path style=" stroke:none;fill-rule:nonzero;fill:rgb(70.196078%,70.196078%,70.196078%);fill-opacity:1;" d="M 0 14.613281 L 4.914062 14.613281 L 4.914062 5.039062 L 0 5.039062 Z M 0 14.613281 "/>
<path style=" stroke:none;fill-rule:nonzero;fill:rgb(70.196078%,70.196078%,70.196078%);fill-opacity:1;" d="M 17.761719 19.425781 C 17.535156 19.425781 17.316406 19.359375 17.125 19.234375 C 16.9375 19.105469 16.792969 18.925781 16.703125 18.714844 C 16.644531 18.570312 16.613281 18.417969 16.609375 18.265625 C 16.609375 18.109375 16.636719 17.957031 16.695312 17.816406 C 16.75 17.671875 16.835938 17.542969 16.941406 17.429688 C 17.050781 17.320312 17.175781 17.234375 17.316406 17.171875 C 18.246094 16.773438 19.089844 16.195312 19.800781 15.464844 C 21.273438 13.96875 22.097656 11.945312 22.097656 9.832031 C 22.089844 7.71875 21.257812 5.695312 19.78125 4.199219 C 19.070312 3.472656 18.226562 2.890625 17.296875 2.488281 C 17.015625 2.363281 16.792969 2.136719 16.679688 1.847656 C 16.5625 1.558594 16.566406 1.238281 16.683594 0.953125 C 16.742188 0.8125 16.824219 0.679688 16.933594 0.574219 C 17.039062 0.464844 17.167969 0.378906 17.308594 0.320312 C 17.449219 0.261719 17.597656 0.234375 17.75 0.234375 C 17.902344 0.238281 18.050781 0.269531 18.191406 0.332031 C 20.621094 1.382812 22.550781 3.347656 23.578125 5.8125 C 24.109375 7.078125 24.382812 8.4375 24.382812 9.8125 C 24.382812 11.1875 24.109375 12.546875 23.585938 13.8125 C 23.078125 15.039062 22.335938 16.148438 21.40625 17.085938 C 20.492188 18.042969 19.398438 18.804688 18.191406 19.332031 C 18.054688 19.394531 17.910156 19.425781 17.761719 19.425781 Z M 17.761719 19.425781 "/>
<path style=" stroke:none;fill-rule:nonzero;fill:rgb(70.196078%,70.196078%,70.196078%);fill-opacity:1;" d="M 15.585938 14.71875 C 15.335938 14.71875 15.09375 14.632812 14.898438 14.472656 C 14.707031 14.308594 14.574219 14.085938 14.523438 13.835938 C 14.472656 13.589844 14.511719 13.332031 14.625 13.105469 C 14.742188 12.882812 14.933594 12.707031 15.164062 12.605469 C 15.699219 12.375 16.160156 11.988281 16.480469 11.496094 C 16.800781 11.003906 16.96875 10.425781 16.96875 9.832031 C 16.96875 9.433594 16.890625 9.035156 16.738281 8.667969 C 16.582031 8.308594 16.359375 7.984375 16.078125 7.714844 C 15.808594 7.433594 15.492188 7.207031 15.136719 7.046875 C 14.90625 6.914062 14.730469 6.699219 14.644531 6.445312 C 14.558594 6.191406 14.566406 5.910156 14.671875 5.664062 C 14.777344 5.414062 14.96875 5.214844 15.210938 5.101562 C 15.449219 4.988281 15.726562 4.96875 15.980469 5.046875 C 16.75 5.382812 17.429688 5.902344 17.960938 6.5625 C 18.488281 7.222656 18.847656 8.003906 19.011719 8.839844 C 19.171875 9.671875 19.132812 10.535156 18.894531 11.347656 C 18.652344 12.164062 18.21875 12.90625 17.632812 13.511719 C 17.167969 13.988281 16.613281 14.367188 16.007812 14.625 C 15.875 14.6875 15.730469 14.71875 15.585938 14.71875 Z M 15.585938 14.71875 "/>
<path style=" stroke:none;fill-rule:nonzero;fill:rgb(70.196078%,70.196078%,70.196078%);fill-opacity:1;" d="M -0.191406 18.277344 L 1.0625 19.875 L 24.945312 0.652344 L 23.691406 -0.949219 Z M -0.191406 18.277344 "/>
</g>
</svg>
